<svg width="40" height="52" viewBox="0 0 40 52" fill="none" xmlns="http://www.w3.org/2000/svg">
<path d="M16.977 2.93452H17.1136C17.3666 2.93452 17.6398 2.95995 17.9105 2.98284C19.1032 3.06695 20.2874 3.24551 21.4521 3.51685V0.653528C20.2528 0.352628 19.0297 0.157776 17.7967 0.0712015C17.3287 0.0356008 16.8303 0.0127146 16.3193 0H15.8918C13.4169 0.00930695 10.9527 0.327052 8.55557 0.945963C5.82533 1.62687 3.20469 2.69275 0.771606 4.11189V32.5086C3.11433 31.2357 5.60716 30.2643 8.19129 29.6173C10.2317 29.0967 12.3175 28.7765 14.4195 28.6612H14.503C14.8546 28.6434 15.2062 28.6332 15.568 28.6306V25.7216C12.8367 25.7567 10.1193 26.1178 7.47285 26.7972C6.49384 27.0515 5.54773 27.3261 4.65979 27.6313L3.6479 27.9746V5.83344L4.08049 5.62492C7.38171 4.05951 10.9522 3.14863 14.5966 2.94215C14.6269 2.93994 14.6573 2.93994 14.6876 2.94215C15.0898 2.92181 15.4946 2.91163 15.8918 2.91163H16.3269H16.3471C16.5571 2.91672 16.7671 2.92181 16.977 2.93452Z" fill="#AFB1B8"/>
<path d="M24.1108 5.93259C23.4455 5.93259 22.7877 5.9097 22.1528 5.86138C21.3939 5.80544 20.6147 5.7139 19.876 5.58929C19.4257 5.51301 18.983 5.42146 18.553 5.32229V33.3935C20.3737 33.8443 22.2433 34.0647 24.1184 34.0496C26.5931 34.0395 29.0571 33.7227 31.4546 33.1061C34.1853 32.4243 36.8067 31.3585 39.2411 29.9402V2.04956C36.8986 3.32178 34.4068 4.29396 31.8239 4.94339C29.3031 5.59083 26.7125 5.92307 24.1108 5.93259ZM35.3352 6.41828L36.3471 6.07753V28.2263L35.9145 28.4348C34.2552 29.2243 32.5223 29.8469 30.7412 30.2937C28.5781 30.8533 26.3544 31.1412 24.1209 31.1506C23.4531 31.1506 22.7903 31.1227 22.1477 31.0667L21.4546 31.0057V28.3178V8.22883L22.2616 8.28224C22.8485 8.32038 23.4556 8.33818 24.1158 8.33818C26.9514 8.3281 29.7749 7.96596 32.5221 7.25998C33.4657 7.01078 34.4042 6.73106 35.3352 6.41828Z" fill="#AFB1B8"/>
<path d="M2.73713 42.2123C2.59166 42.0614 2.41629 41.9429 2.22236 41.8645C2.02844 41.7861 1.82029 41.7495 1.61141 41.7571C1.38879 41.7541 1.16781 41.7956 0.961267 41.8791C0.771901 41.9546 0.599767 42.0679 0.455322 42.2123C0.312451 42.3571 0.201292 42.5303 0.128988 42.7208C0.0496792 42.9205 0.0101425 43.1339 0.0126205 43.3489V47.143C0.00357283 47.4103 0.0545882 47.6763 0.161874 47.9211C0.251433 48.1155 0.380725 48.2888 0.541333 48.4297C0.692953 48.5573 0.870978 48.6494 1.06246 48.6992C1.24694 48.7511 1.43755 48.7776 1.62911 48.7781C1.84041 48.7802 2.04953 48.735 2.24131 48.6458C2.43095 48.5629 2.60277 48.4437 2.74725 48.2949C2.88814 48.1475 3.00052 47.975 3.07865 47.7863C3.15973 47.595 3.20105 47.3891 3.20007 47.1811V46.7564H2.20842V47.0947C2.21137 47.2101 2.1916 47.3251 2.15024 47.4329C2.11794 47.5136 2.06877 47.5865 2.00604 47.6465C1.94461 47.6961 1.87416 47.7332 1.79861 47.7558C1.73164 47.7781 1.6617 47.7901 1.59117 47.7914C1.50263 47.8017 1.41296 47.7883 1.33122 47.7526C1.24948 47.7169 1.17858 47.6601 1.1257 47.588C1.03222 47.4355 0.986395 47.2583 0.994154 47.0794V43.5422C0.988002 43.3461 1.02969 43.1514 1.11558 42.9751C1.16706 42.8951 1.2399 42.8311 1.32578 42.7907C1.41166 42.7502 1.50713 42.7348 1.60129 42.7463C1.68676 42.7432 1.7717 42.7611 1.8488 42.7983C1.92591 42.8355 1.99289 42.8909 2.04399 42.9599C2.15496 43.1056 2.21298 43.285 2.20842 43.4685V43.7965H3.18995V43.41C3.19195 43.183 3.15073 42.9577 3.06853 42.7463C2.99527 42.5475 2.88251 42.3658 2.73713 42.2123Z" fill="#AFB1B8"/>
<path d="M8.62892 42.1692C8.31271 41.9022 7.91362 41.7547 7.50066 41.7522C7.29868 41.7531 7.09838 41.7892 6.9087 41.859C6.71613 41.928 6.53841 42.0333 6.38505 42.1692C6.22076 42.3169 6.08968 42.4981 6.00053 42.7007C5.90063 42.9325 5.85146 43.1831 5.85634 43.4356V47.0745C5.8495 47.3305 5.89873 47.5849 6.00053 47.8196C6.09028 48.0153 6.22152 48.1889 6.38505 48.3282C6.53665 48.4689 6.71468 48.5779 6.9087 48.6486C7.09838 48.7184 7.29868 48.7545 7.50066 48.7554C7.70269 48.755 7.90307 48.7188 8.09262 48.6486C8.28995 48.5769 8.47195 48.4681 8.62892 48.3282C8.7871 48.1862 8.91454 48.0131 9.00332 47.8196C9.10512 47.5849 9.15435 47.3305 9.14751 47.0745V43.4356C9.15239 43.1831 9.10322 42.9325 9.00332 42.7007C8.91505 42.5002 8.78775 42.3195 8.62892 42.1692ZM8.16598 47.0745C8.17434 47.1715 8.16095 47.2691 8.1268 47.3602C8.09265 47.4513 8.03861 47.5336 7.96866 47.6009C7.83768 47.7107 7.67251 47.7709 7.50193 47.7709C7.33135 47.7709 7.16617 47.7107 7.03519 47.6009C6.96524 47.5336 6.9112 47.4513 6.87705 47.3602C6.8429 47.2691 6.82952 47.1715 6.83787 47.0745V43.4356C6.82952 43.3386 6.8429 43.241 6.87705 43.1499C6.9112 43.0588 6.96524 42.9765 7.03519 42.9092C7.16617 42.7994 7.33135 42.7392 7.50193 42.7392C7.67251 42.7392 7.83768 42.7994 7.96866 42.9092C8.03861 42.9765 8.09265 43.0588 8.1268 43.1499C8.16095 43.241 8.17434 43.3386 8.16598 43.4356V47.0745Z" fill="#AFB1B8"/>
<path d="M16.3673 48.6993V41.8105H15.4136L14.1614 45.4571H14.1437L12.8813 41.8105H11.9377V48.6993H12.9218V44.5086H12.9395L13.9033 47.4711H14.3941L15.3655 44.5086H15.3832V48.6993H16.3673Z" fill="#AFB1B8"/>
<path d="M21.9581 42.2938C21.8065 42.1238 21.6153 41.9944 21.4015 41.9174C21.1712 41.8425 20.9302 41.8064 20.6881 41.8106H19.226V48.6994H20.2075V46.009H20.7134C21.0197 46.0229 21.3244 45.9582 21.5988 45.8208C21.822 45.6969 22.0081 45.5151 22.1377 45.2944C22.2512 45.1112 22.3277 44.9073 22.3628 44.6943C22.4014 44.4351 22.4192 44.1732 22.4159 43.9111C22.4255 43.5803 22.3932 43.2496 22.3198 42.927C22.2543 42.6886 22.1299 42.4708 21.9581 42.2938ZM21.4521 44.3942C21.4479 44.519 21.4168 44.6413 21.361 44.7528C21.3049 44.8587 21.2162 44.9435 21.1081 44.9944C20.9627 45.0594 20.8041 45.089 20.6451 45.0808H20.1974V42.7388H20.7033C20.8557 42.7313 21.0075 42.761 21.146 42.8253C21.2475 42.8835 21.3281 42.9725 21.3762 43.0795C21.4299 43.2006 21.4591 43.3311 21.4622 43.4635C21.4622 43.6085 21.4622 43.7611 21.4622 43.9213C21.4622 44.0815 21.4723 44.2467 21.4622 44.3942H21.4521Z" fill="#AFB1B8"/>
<path d="M26.6077 41.8105H25.8032L24.2854 48.6993H25.2669L25.5553 47.2193H26.8935L27.1819 48.6993H28.1635L26.6077 41.8105ZM25.702 46.281L26.1852 43.7838H26.2029L26.6836 46.281H25.702Z" fill="#AFB1B8"/>
<path d="M32.9497 45.9606H32.932L31.4496 41.8105H30.506V48.6993H31.4875V44.5569H31.5078L33.0079 48.6993H33.9312V41.8105H32.9497V45.9606Z" fill="#AFB1B8"/>
<path d="M38.9476 41.8105L38.1583 44.5493H38.1381L37.3488 41.8105H36.3091L37.6574 45.7877V48.6993H38.639V45.7877L39.9873 41.8105H38.9476Z" fill="#AFB1B8"/>
<path d="M0 50.6447H0.473058V51.972H0.794333V50.6447H1.26486V50.3726H0V50.6447Z" fill="#AFB1B8"/>
<path d="M3.97672 50.3726L3.35693 51.972H3.69845L3.82999 51.6084H4.46748L4.60409 51.972H4.95319L4.31823 50.3726H3.97672ZM3.92612 51.3389L4.14368 50.7464L4.36123 51.3389H3.92612Z" fill="#AFB1B8"/>
<path d="M7.90793 51.3821H8.27727V51.5881C8.16941 51.6746 8.03576 51.722 7.89781 51.7229C7.8333 51.7265 7.76886 51.7145 7.70988 51.688C7.65091 51.6614 7.59911 51.6211 7.55883 51.5703C7.47402 51.4485 7.43217 51.3017 7.43993 51.1533C7.43993 50.7973 7.59424 50.6193 7.90034 50.6193C7.98091 50.6112 8.06168 50.6325 8.12804 50.6791C8.19439 50.7257 8.24194 50.7947 8.26209 50.8735L8.57831 50.8125C8.51001 50.4997 8.28486 50.3421 7.90034 50.3421C7.69468 50.3366 7.4947 50.4103 7.34127 50.5481C7.26069 50.6276 7.19834 50.7239 7.15858 50.8302C7.11882 50.9365 7.10261 51.0502 7.11107 51.1634C7.10175 51.3823 7.17493 51.5966 7.31598 51.7636C7.39434 51.8444 7.4892 51.9071 7.59401 51.9475C7.69883 51.9879 7.8111 52.0049 7.92311 51.9975C8.17338 52.0045 8.41652 51.9133 8.60108 51.7432V51.1126H7.90793V51.3821Z" fill="#AFB1B8"/>
<path d="M11.9226 50.3726H11.5988V51.972H12.7194V51.7H11.9226V50.3726Z" fill="#AFB1B8"/>
<path d="M15.3175 50.3726H14.9937V51.972H15.3175V50.3726Z" fill="#AFB1B8"/>
<path d="M18.6365 51.4406L17.9813 50.3726H17.6676V51.972H17.9686V50.9269L18.6112 51.972H18.9325V50.3726H18.6365V51.4406Z" fill="#AFB1B8"/>
<path d="M21.6368 51.2677H22.4337V50.9956H21.6368V50.6447H22.4944V50.3726H21.313V51.972H22.5273V51.7H21.6368V51.2677Z" fill="#AFB1B8"/>
<path d="M28.9122 51.0032H28.2823V50.3726H27.9611V51.972H28.2823V51.2728H28.9122V51.972H29.2335V50.3726H28.9122V51.0032Z" fill="#AFB1B8"/>
<path d="M31.9302 51.2677H32.7296V50.9956H31.9302V50.6447H32.7903V50.3726H31.6089V51.972H32.8206V51.7H31.9302V51.2677Z" fill="#AFB1B8"/>
<path d="M36.0233 51.2676C36.3015 51.2244 36.4432 51.0769 36.4432 50.8226C36.4513 50.7546 36.441 50.6856 36.4134 50.623C36.3858 50.5603 36.3419 50.5063 36.2863 50.4666C36.1415 50.3938 35.9799 50.3614 35.8183 50.3725H35.1404V51.972H35.4617V51.3032H35.5249C35.5934 51.299 35.6619 51.3112 35.7247 51.3388C35.7717 51.3678 35.8108 51.4079 35.8386 51.4558L36.1877 51.9644H36.5722L36.3774 51.6516C36.2913 51.4972 36.1699 51.3656 36.0233 51.2676ZM35.6994 51.0464H35.4617V50.6446H35.7146C35.8248 50.6357 35.9357 50.6486 36.041 50.6827C36.0644 50.7034 36.0828 50.7291 36.095 50.7579C36.1072 50.7867 36.1127 50.8179 36.1113 50.8492C36.1098 50.8804 36.1014 50.911 36.0866 50.9385C36.0718 50.966 36.051 50.9899 36.0258 51.0082C35.9202 51.0406 35.8096 51.0535 35.6994 51.0464Z" fill="#AFB1B8"/>
<path d="M39.1096 51.2677H39.9064V50.9956H39.1096V50.6447H39.9697V50.3726H38.7858V51.972H40V51.7H39.1096V51.2677Z" fill="#AFB1B8"/>
</svg>
